<svg id="visual" viewBox="0 0 1000 300" width="1000" height="300" xmlns="http://www.w3.org/2000/svg" xmlns:xlink="http://www.w3.org/1999/xlink" version="1.1"><rect x="0" y="0" width="1000" height="300" fill="#ffffff"></rect><path d="M0 188L13.8 187.8C27.7 187.7 55.3 187.3 83.2 188.2C111 189 139 191 166.8 186.8C194.7 182.7 222.3 172.3 250 170.5C277.7 168.7 305.3 175.3 333.2 178.7C361 182 389 182 416.8 182.2C444.7 182.3 472.3 182.7 500 185.3C527.7 188 555.3 193 583.2 195.8C611 198.7 639 199.3 666.8 197.2C694.7 195 722.3 190 750 190.2C777.7 190.3 805.3 195.7 833.2 196C861 196.3 889 191.7 916.8 189.8C944.7 188 972.3 189 986.2 189.5L1000 190L1000 301L986.2 301C972.3 301 944.7 301 916.8 301C889 301 861 301 833.2 301C805.3 301 777.7 301 750 301C722.3 301 694.7 301 666.8 301C639 301 611 301 583.2 301C555.3 301 527.7 301 500 301C472.3 301 444.7 301 416.8 301C389 301 361 301 333.2 301C305.3 301 277.7 301 250 301C222.3 301 194.7 301 166.8 301C139 301 111 301 83.2 301C55.3 301 27.7 301 13.8 301L0 301Z" fill="#cdcdcd"></path><path d="M0 202L13.8 200.3C27.7 198.7 55.3 195.3 83.2 197.8C111 200.3 139 208.7 166.8 209.8C194.7 211 222.3 205 250 199.5C277.7 194 305.3 189 333.2 188.7C361 188.3 389 192.7 416.8 194C444.7 195.3 472.3 193.7 500 197.5C527.7 201.3 555.3 210.7 583.2 213.7C611 216.7 639 213.3 666.8 207.8C694.7 202.3 722.3 194.7 750 191.2C777.7 187.7 805.3 188.3 833.2 187.8C861 187.3 889 185.7 916.8 188.2C944.7 190.7 972.3 197.3 986.2 200.7L1000 204L1000 301L986.2 301C972.3 301 944.7 301 916.8 301C889 301 861 301 833.2 301C805.3 301 777.7 301 750 301C722.3 301 694.7 301 666.8 301C639 301 611 301 583.2 301C555.3 301 527.7 301 500 301C472.3 301 444.7 301 416.8 301C389 301 361 301 333.2 301C305.3 301 277.7 301 250 301C222.3 301 194.7 301 166.8 301C139 301 111 301 83.2 301C55.3 301 27.7 301 13.8 301L0 301Z" fill="#d8d8d8"></path><path d="M0 238L13.8 237.8C27.7 237.7 55.3 237.3 83.2 233.7C111 230 139 223 166.8 221.7C194.7 220.3 222.3 224.7 250 225.8C277.7 227 305.3 225 333.2 222.3C361 219.7 389 216.3 416.8 214.7C444.7 213 472.3 213 500 217.7C527.7 222.3 555.3 231.7 583.2 233.7C611 235.7 639 230.3 666.8 228.8C694.7 227.3 722.3 229.7 750 230C777.7 230.3 805.3 228.7 833.2 228C861 227.3 889 227.7 916.8 225.3C944.7 223 972.3 218 986.2 215.5L1000 213L1000 301L986.2 301C972.3 301 944.7 301 916.8 301C889 301 861 301 833.2 301C805.3 301 777.7 301 750 301C722.3 301 694.7 301 666.8 301C639 301 611 301 583.2 301C555.3 301 527.7 301 500 301C472.3 301 444.7 301 416.8 301C389 301 361 301 333.2 301C305.3 301 277.7 301 250 301C222.3 301 194.7 301 166.8 301C139 301 111 301 83.2 301C55.3 301 27.7 301 13.8 301L0 301Z" fill="#e4e4e4"></path><path d="M0 243L13.8 243.3C27.7 243.7 55.3 244.3 83.2 246.8C111 249.3 139 253.7 166.8 253.2C194.7 252.7 222.3 247.3 250 245.3C277.7 243.3 305.3 244.7 333.2 244.7C361 244.7 389 243.3 416.8 244.8C444.7 246.3 472.3 250.7 500 253.3C527.7 256 555.3 257 583.2 255.7C611 254.3 639 250.7 666.8 248.3C694.7 246 722.3 245 750 246.5C777.7 248 805.3 252 833.2 253C861 254 889 252 916.8 251.2C944.7 250.3 972.3 250.7 986.2 250.8L1000 251L1000 301L986.2 301C972.3 301 944.7 301 916.8 301C889 301 861 301 833.2 301C805.3 301 777.7 301 750 301C722.3 301 694.7 301 666.8 301C639 301 611 301 583.2 301C555.3 301 527.7 301 500 301C472.3 301 444.7 301 416.8 301C389 301 361 301 333.2 301C305.3 301 277.7 301 250 301C222.3 301 194.7 301 166.8 301C139 301 111 301 83.2 301C55.3 301 27.7 301 13.8 301L0 301Z" fill="#efefef"></path></svg>